<?xml version="1.0" standalone="no"?><!DOCTYPE svg PUBLIC "-//W3C//DTD SVG 1.1//EN" "http://www.w3.org/Graphics/SVG/1.1/DTD/svg11.dtd"><svg t="1624270047820" class="icon" viewBox="0 0 1024 1024" version="1.1" xmlns="http://www.w3.org/2000/svg" p-id="1731" xmlns:xlink="http://www.w3.org/1999/xlink" width="200" height="200"><defs><style type="text/css"></style></defs><path d="M148 840c-19.882 0-36 16.118-36 36s16.118 36 36 36h728c19.882 0 36-16.118 36-36s-16.118-36-36-36H148z m0-243c-19.882 0-36 16.118-36 36s16.118 36 36 36h436c19.882 0 36-16.118 36-36s-16.118-36-36-36H148z m555.248-233.59a8 8 0 0 0-8 8v281.18a8 8 0 0 0 12.603 6.544l199.848-140.59a8 8 0 0 0 0-13.087l-199.848-140.59a8 8 0 0 0-4.603-1.458zM148 355c-19.882 0-36 16.118-36 36s16.118 36 36 36h436c19.882 0 36-16.118 36-36s-16.118-36-36-36H148z m0-243c-19.882 0-36 16.118-36 36s16.118 36 36 36h728c19.882 0 36-16.118 36-36s-16.118-36-36-36H148z" fill="#333333" p-id="1732"></path></svg>